<svg width="43" height="55" viewBox="0 0 43 55" fill="none" xmlns="http://www.w3.org/2000/svg">
<g clip-path="url(#clip0_231_1134)">
<path d="M14.9442 52.5897V47.2091H12.5529V42.4264H10.1615V37.6437H7.77018V32.2632H4.781V29.8718H2.38965V25.0891H7.77018V27.4805H10.1615V34.6545H12.5529V2.37122H17.3356V25.0891H19.7269V14.9258H25.1075V25.0891H27.4988V17.3172H32.2815V27.4805H34.6728V19.7085H37.662V22.6977H40.0534V40.0351H37.662V47.2091H34.6728V52.5897H14.9442Z" fill="white"/>
<path d="M12.5546 54.9811V47.2092H10.1632V42.4264H7.77188V37.6437H4.7827V32.2632H2.39135V29.8718H0V22.6977H7.77188V25.0891H10.1632V2.37122H12.5546V-0.0201416H17.3373V2.37122H19.7286V12.5345H25.1092V14.9258H32.2832V17.3172H37.6637V19.7086H40.0551V22.6977H42.4464V40.0351H40.0551V47.2092H37.6637V54.9811H12.5546ZM34.6746 52.5897V47.2092H37.6637V40.0351H40.0551V22.6977H37.6637V19.7086H34.6746V27.4805H32.2832V17.3172H27.5005V25.0891H25.1092V14.9258H19.7286V25.0891H17.3373V2.37122H12.5546V34.6545H10.1632V27.4805H7.77188V25.0891H2.39135V29.8718H4.7827V32.2632H7.77188V37.6437H10.1632V42.4264H12.5546V47.2092H14.9459V52.5897H34.6746Z" fill="#0F1624"/>
</g>
<defs>
<clipPath id="clip0_231_1134">
<rect width="42.4458" height="55" fill="white"/>
</clipPath>
</defs>
</svg>
